<mxfile host="Electron" agent="Mozilla/5.0 (Windows NT 10.0; Win64; x64) AppleWebKit/537.36 (KHTML, like Gecko) draw.io/27.0.2 Chrome/134.0.6998.205 Electron/35.3.0 Safari/537.36" version="27.0.2">
  <diagram name="Page-1" id="ZNyicDcsx-Xio5ccENdz">
    <mxGraphModel dx="1426" dy="849" grid="1" gridSize="10" guides="1" tooltips="1" connect="1" arrows="1" fold="1" page="1" pageScale="1" pageWidth="850" pageHeight="1100" math="0" shadow="0">
      <root>
        <mxCell id="0" />
        <mxCell id="1" parent="0" />
        <mxCell id="69kDBiBRpT4Zsd1rVVDj-1" value="" style="strokeWidth=1;shadow=0;dashed=0;align=left;html=1;shape=mxgraph.mockup.containers.browserWindow;rSize=0;strokeColor=#666666;strokeColor2=#008cff;strokeColor3=#c4c4c4;mainText=,;recursiveResize=0;" vertex="1" parent="1">
          <mxGeometry x="80" y="110" width="1110" height="930" as="geometry" />
        </mxCell>
        <mxCell id="69kDBiBRpT4Zsd1rVVDj-2" value="Page 1" style="strokeWidth=1;shadow=0;dashed=0;align=center;html=1;shape=mxgraph.mockup.containers.anchor;fontSize=17;fontColor=#666666;align=left;whiteSpace=wrap;" vertex="1" parent="69kDBiBRpT4Zsd1rVVDj-1">
          <mxGeometry x="60" y="12" width="110" height="26" as="geometry" />
        </mxCell>
        <mxCell id="69kDBiBRpT4Zsd1rVVDj-3" value="https://www.draw.io/groups?teamId=" style="strokeWidth=1;shadow=0;dashed=0;align=center;html=1;shape=mxgraph.mockup.containers.anchor;rSize=0;fontSize=17;fontColor=#666666;align=left;" vertex="1" parent="69kDBiBRpT4Zsd1rVVDj-1">
          <mxGeometry x="130" y="60" width="250" height="26" as="geometry" />
        </mxCell>
        <mxCell id="69kDBiBRpT4Zsd1rVVDj-6" value="" style="group;fontSize=16;fontStyle=1" vertex="1" connectable="0" parent="69kDBiBRpT4Zsd1rVVDj-1">
          <mxGeometry y="110" width="1110" height="100" as="geometry" />
        </mxCell>
        <mxCell id="69kDBiBRpT4Zsd1rVVDj-4" value="" style="rounded=0;whiteSpace=wrap;html=1;" vertex="1" parent="69kDBiBRpT4Zsd1rVVDj-6">
          <mxGeometry width="1110" height="100" as="geometry" />
        </mxCell>
        <mxCell id="69kDBiBRpT4Zsd1rVVDj-5" value="&lt;font style=&quot;font-size: 16px;&quot;&gt;Header&lt;/font&gt;" style="text;html=1;align=center;verticalAlign=middle;whiteSpace=wrap;rounded=0;fontStyle=1" vertex="1" parent="69kDBiBRpT4Zsd1rVVDj-6">
          <mxGeometry x="525" y="35" width="60" height="30" as="geometry" />
        </mxCell>
        <mxCell id="69kDBiBRpT4Zsd1rVVDj-7" value="Navigation Links" style="text;html=1;align=center;verticalAlign=middle;whiteSpace=wrap;rounded=0;" vertex="1" parent="69kDBiBRpT4Zsd1rVVDj-6">
          <mxGeometry x="980" y="70" width="110" height="30" as="geometry" />
        </mxCell>
        <mxCell id="69kDBiBRpT4Zsd1rVVDj-10" value="&lt;b&gt;&lt;font style=&quot;font-size: 18px;&quot;&gt;Groups - TEAM NAME&lt;/font&gt;&lt;/b&gt;" style="text;html=1;align=center;verticalAlign=middle;whiteSpace=wrap;rounded=0;" vertex="1" parent="69kDBiBRpT4Zsd1rVVDj-1">
          <mxGeometry x="452.5" y="220" width="215" height="30" as="geometry" />
        </mxCell>
        <mxCell id="69kDBiBRpT4Zsd1rVVDj-13" value="" style="group" vertex="1" connectable="0" parent="69kDBiBRpT4Zsd1rVVDj-1">
          <mxGeometry x="50" y="320" width="75" height="30" as="geometry" />
        </mxCell>
        <mxCell id="69kDBiBRpT4Zsd1rVVDj-11" value="Group 1" style="text;html=1;align=center;verticalAlign=middle;whiteSpace=wrap;rounded=0;fontStyle=1;fontSize=15;" vertex="1" parent="69kDBiBRpT4Zsd1rVVDj-13">
          <mxGeometry x="15" width="60" height="30" as="geometry" />
        </mxCell>
        <mxCell id="69kDBiBRpT4Zsd1rVVDj-12" value="" style="triangle;whiteSpace=wrap;html=1;" vertex="1" parent="69kDBiBRpT4Zsd1rVVDj-13">
          <mxGeometry y="10" width="10" height="10" as="geometry" />
        </mxCell>
        <mxCell id="69kDBiBRpT4Zsd1rVVDj-14" value="" style="group" vertex="1" connectable="0" parent="69kDBiBRpT4Zsd1rVVDj-1">
          <mxGeometry x="50" y="350" width="75" height="30" as="geometry" />
        </mxCell>
        <mxCell id="69kDBiBRpT4Zsd1rVVDj-15" value="Group 2" style="text;html=1;align=center;verticalAlign=middle;whiteSpace=wrap;rounded=0;fontStyle=1;fontSize=15;" vertex="1" parent="69kDBiBRpT4Zsd1rVVDj-14">
          <mxGeometry x="15" width="60" height="30" as="geometry" />
        </mxCell>
        <mxCell id="69kDBiBRpT4Zsd1rVVDj-16" value="" style="triangle;whiteSpace=wrap;html=1;" vertex="1" parent="69kDBiBRpT4Zsd1rVVDj-14">
          <mxGeometry y="10" width="10" height="10" as="geometry" />
        </mxCell>
        <mxCell id="69kDBiBRpT4Zsd1rVVDj-17" value="" style="group" vertex="1" connectable="0" parent="69kDBiBRpT4Zsd1rVVDj-1">
          <mxGeometry x="50" y="380" width="75" height="30" as="geometry" />
        </mxCell>
        <mxCell id="69kDBiBRpT4Zsd1rVVDj-18" value="Group 3" style="text;html=1;align=center;verticalAlign=middle;whiteSpace=wrap;rounded=0;fontStyle=1;fontSize=15;" vertex="1" parent="69kDBiBRpT4Zsd1rVVDj-17">
          <mxGeometry x="15" width="60" height="30" as="geometry" />
        </mxCell>
        <mxCell id="69kDBiBRpT4Zsd1rVVDj-19" value="" style="triangle;whiteSpace=wrap;html=1;" vertex="1" parent="69kDBiBRpT4Zsd1rVVDj-17">
          <mxGeometry y="10" width="10" height="10" as="geometry" />
        </mxCell>
        <mxCell id="69kDBiBRpT4Zsd1rVVDj-21" value="Group 4" style="text;html=1;align=center;verticalAlign=middle;whiteSpace=wrap;rounded=0;fontStyle=1;fontSize=15;" vertex="1" parent="69kDBiBRpT4Zsd1rVVDj-1">
          <mxGeometry x="65" y="410" width="60" height="30" as="geometry" />
        </mxCell>
        <mxCell id="69kDBiBRpT4Zsd1rVVDj-22" value="" style="triangle;whiteSpace=wrap;html=1;rotation=90;" vertex="1" parent="69kDBiBRpT4Zsd1rVVDj-1">
          <mxGeometry x="50" y="420" width="10" height="10" as="geometry" />
        </mxCell>
        <mxCell id="69kDBiBRpT4Zsd1rVVDj-25" value="" style="group" vertex="1" connectable="0" parent="69kDBiBRpT4Zsd1rVVDj-1">
          <mxGeometry x="30" y="270" width="340" height="30" as="geometry" />
        </mxCell>
        <mxCell id="69kDBiBRpT4Zsd1rVVDj-20" value="Group 5" style="rounded=1;whiteSpace=wrap;html=1;align=left;" vertex="1" parent="69kDBiBRpT4Zsd1rVVDj-25">
          <mxGeometry x="90" width="120" height="30" as="geometry" />
        </mxCell>
        <mxCell id="69kDBiBRpT4Zsd1rVVDj-23" value="Group Name:" style="text;html=1;align=center;verticalAlign=middle;whiteSpace=wrap;rounded=0;" vertex="1" parent="69kDBiBRpT4Zsd1rVVDj-25">
          <mxGeometry width="90" height="30" as="geometry" />
        </mxCell>
        <mxCell id="69kDBiBRpT4Zsd1rVVDj-24" value="Create" style="strokeWidth=1;shadow=0;dashed=0;align=center;html=1;shape=mxgraph.mockup.buttons.button;strokeColor=#666666;fontColor=#ffffff;mainText=;buttonStyle=round;fontSize=17;fontStyle=1;fillColor=#008cff;whiteSpace=wrap;" vertex="1" parent="69kDBiBRpT4Zsd1rVVDj-25">
          <mxGeometry x="220" width="120" height="30" as="geometry" />
        </mxCell>
        <mxCell id="69kDBiBRpT4Zsd1rVVDj-26" value="" style="rounded=1;whiteSpace=wrap;html=1;" vertex="1" parent="69kDBiBRpT4Zsd1rVVDj-1">
          <mxGeometry x="40" y="450" width="1040" height="460" as="geometry" />
        </mxCell>
        <mxCell id="69kDBiBRpT4Zsd1rVVDj-27" value="Users" style="text;html=1;align=center;verticalAlign=middle;whiteSpace=wrap;rounded=0;fontStyle=1;fontSize=14;" vertex="1" parent="69kDBiBRpT4Zsd1rVVDj-1">
          <mxGeometry x="525" y="470" width="60" height="30" as="geometry" />
        </mxCell>
        <UserObject label="User 1" link="https://www.draw.io" id="69kDBiBRpT4Zsd1rVVDj-30">
          <mxCell style="text;html=1;strokeColor=none;fillColor=none;whiteSpace=wrap;align=center;verticalAlign=middle;fontColor=#0000EE;fontStyle=4;" vertex="1" parent="69kDBiBRpT4Zsd1rVVDj-1">
            <mxGeometry x="85" y="510" width="60" height="40" as="geometry" />
          </mxCell>
        </UserObject>
        <mxCell id="69kDBiBRpT4Zsd1rVVDj-34" value="" style="group" vertex="1" connectable="0" parent="69kDBiBRpT4Zsd1rVVDj-1">
          <mxGeometry x="60" y="510" width="130" height="40" as="geometry" />
        </mxCell>
        <UserObject label="Remove" link="https://www.draw.io" id="69kDBiBRpT4Zsd1rVVDj-31">
          <mxCell style="text;html=1;strokeColor=none;fillColor=none;whiteSpace=wrap;align=center;verticalAlign=middle;fontColor=#0000EE;fontStyle=4;" vertex="1" parent="69kDBiBRpT4Zsd1rVVDj-34">
            <mxGeometry x="70" width="60" height="40" as="geometry" />
          </mxCell>
        </UserObject>
        <mxCell id="69kDBiBRpT4Zsd1rVVDj-33" value="●" style="text;html=1;align=center;verticalAlign=middle;whiteSpace=wrap;rounded=0;" vertex="1" parent="69kDBiBRpT4Zsd1rVVDj-34">
          <mxGeometry y="5" width="60" height="30" as="geometry" />
        </mxCell>
        <mxCell id="69kDBiBRpT4Zsd1rVVDj-36" value="" style="group" vertex="1" connectable="0" parent="69kDBiBRpT4Zsd1rVVDj-1">
          <mxGeometry x="60" y="530" width="130" height="100" as="geometry" />
        </mxCell>
        <UserObject label="Remove" link="https://www.draw.io" id="69kDBiBRpT4Zsd1rVVDj-37">
          <mxCell style="text;html=1;strokeColor=none;fillColor=none;whiteSpace=wrap;align=center;verticalAlign=middle;fontColor=#0000EE;fontStyle=4;" vertex="1" parent="69kDBiBRpT4Zsd1rVVDj-36">
            <mxGeometry x="70" width="60" height="40" as="geometry" />
          </mxCell>
        </UserObject>
        <mxCell id="69kDBiBRpT4Zsd1rVVDj-38" value="●" style="text;html=1;align=center;verticalAlign=middle;whiteSpace=wrap;rounded=0;" vertex="1" parent="69kDBiBRpT4Zsd1rVVDj-36">
          <mxGeometry y="5" width="60" height="30" as="geometry" />
        </mxCell>
        <mxCell id="69kDBiBRpT4Zsd1rVVDj-39" value="" style="group" vertex="1" connectable="0" parent="69kDBiBRpT4Zsd1rVVDj-36">
          <mxGeometry y="20" width="130" height="80" as="geometry" />
        </mxCell>
        <UserObject label="Remove" link="https://www.draw.io" id="69kDBiBRpT4Zsd1rVVDj-40">
          <mxCell style="text;html=1;strokeColor=none;fillColor=none;whiteSpace=wrap;align=center;verticalAlign=middle;fontColor=#0000EE;fontStyle=4;" vertex="1" parent="69kDBiBRpT4Zsd1rVVDj-39">
            <mxGeometry x="70" width="60" height="40" as="geometry" />
          </mxCell>
        </UserObject>
        <mxCell id="69kDBiBRpT4Zsd1rVVDj-41" value="●" style="text;html=1;align=center;verticalAlign=middle;whiteSpace=wrap;rounded=0;" vertex="1" parent="69kDBiBRpT4Zsd1rVVDj-39">
          <mxGeometry y="5" width="60" height="30" as="geometry" />
        </mxCell>
        <mxCell id="69kDBiBRpT4Zsd1rVVDj-42" value="" style="group" vertex="1" connectable="0" parent="69kDBiBRpT4Zsd1rVVDj-39">
          <mxGeometry y="20" width="130" height="60" as="geometry" />
        </mxCell>
        <UserObject label="Remove" link="https://www.draw.io" id="69kDBiBRpT4Zsd1rVVDj-43">
          <mxCell style="text;html=1;strokeColor=none;fillColor=none;whiteSpace=wrap;align=center;verticalAlign=middle;fontColor=#0000EE;fontStyle=4;" vertex="1" parent="69kDBiBRpT4Zsd1rVVDj-42">
            <mxGeometry x="70" width="60" height="40" as="geometry" />
          </mxCell>
        </UserObject>
        <mxCell id="69kDBiBRpT4Zsd1rVVDj-44" value="●" style="text;html=1;align=center;verticalAlign=middle;whiteSpace=wrap;rounded=0;" vertex="1" parent="69kDBiBRpT4Zsd1rVVDj-42">
          <mxGeometry y="5" width="60" height="30" as="geometry" />
        </mxCell>
        <mxCell id="69kDBiBRpT4Zsd1rVVDj-45" value="" style="group" vertex="1" connectable="0" parent="69kDBiBRpT4Zsd1rVVDj-42">
          <mxGeometry y="20" width="130" height="40" as="geometry" />
        </mxCell>
        <UserObject label="Remove" link="https://www.draw.io" id="69kDBiBRpT4Zsd1rVVDj-46">
          <mxCell style="text;html=1;strokeColor=none;fillColor=none;whiteSpace=wrap;align=center;verticalAlign=middle;fontColor=#0000EE;fontStyle=4;" vertex="1" parent="69kDBiBRpT4Zsd1rVVDj-45">
            <mxGeometry x="70" width="60" height="40" as="geometry" />
          </mxCell>
        </UserObject>
        <mxCell id="69kDBiBRpT4Zsd1rVVDj-47" value="●" style="text;html=1;align=center;verticalAlign=middle;whiteSpace=wrap;rounded=0;" vertex="1" parent="69kDBiBRpT4Zsd1rVVDj-45">
          <mxGeometry y="5" width="60" height="30" as="geometry" />
        </mxCell>
        <mxCell id="69kDBiBRpT4Zsd1rVVDj-48" value="Add New User" style="strokeWidth=1;shadow=0;dashed=0;align=center;html=1;shape=mxgraph.mockup.buttons.button;strokeColor=#666666;fontColor=#ffffff;mainText=;buttonStyle=round;fontSize=17;fontStyle=1;fillColor=#008cff;whiteSpace=wrap;" vertex="1" parent="69kDBiBRpT4Zsd1rVVDj-1">
          <mxGeometry x="480" y="840" width="150" height="50" as="geometry" />
        </mxCell>
        <mxCell id="69kDBiBRpT4Zsd1rVVDj-9" value="&lt;h1 style=&quot;margin-top: 0px;&quot;&gt;Things to consider&lt;/h1&gt;&lt;p&gt;1. Manage groups (add/edit/delete)&lt;/p&gt;&lt;p&gt;2. Manage users in groups (add/delete) -&amp;gt; Must have ownership of group&lt;/p&gt;&lt;p&gt;&lt;span style=&quot;background-color: transparent; color: light-dark(rgb(0, 0, 0), rgb(255, 255, 255));&quot;&gt;&amp;nbsp;&lt;/span&gt;&lt;/p&gt;&lt;p&gt;&lt;br&gt;&lt;/p&gt;" style="text;html=1;whiteSpace=wrap;overflow=hidden;rounded=0;fillColor=#dae8fc;strokeColor=#6c8ebf;" vertex="1" parent="1">
          <mxGeometry x="90" y="1070" width="400" height="140" as="geometry" />
        </mxCell>
        <mxCell id="69kDBiBRpT4Zsd1rVVDj-28" value="" style="rounded=1;whiteSpace=wrap;html=1;" vertex="1" parent="1">
          <mxGeometry x="640" y="1130" width="640" height="300" as="geometry" />
        </mxCell>
        <mxCell id="69kDBiBRpT4Zsd1rVVDj-49" value="Add New User Popup" style="text;html=1;align=center;verticalAlign=middle;whiteSpace=wrap;rounded=0;" vertex="1" parent="1">
          <mxGeometry x="640" y="1110" width="150" height="30" as="geometry" />
        </mxCell>
        <mxCell id="69kDBiBRpT4Zsd1rVVDj-50" value="First name" style="rounded=1;whiteSpace=wrap;html=1;align=left;" vertex="1" parent="1">
          <mxGeometry x="680" y="1170" width="130" height="30" as="geometry" />
        </mxCell>
        <mxCell id="69kDBiBRpT4Zsd1rVVDj-52" value="Search" style="strokeWidth=1;shadow=0;dashed=0;align=center;html=1;shape=mxgraph.mockup.buttons.button;strokeColor=#666666;fontColor=#ffffff;mainText=;buttonStyle=round;fontSize=17;fontStyle=1;fillColor=#008cff;whiteSpace=wrap;" vertex="1" parent="1">
          <mxGeometry x="1110" y="1170" width="130" height="30" as="geometry" />
        </mxCell>
        <mxCell id="69kDBiBRpT4Zsd1rVVDj-53" value="Last Name" style="rounded=1;whiteSpace=wrap;html=1;align=left;" vertex="1" parent="1">
          <mxGeometry x="820" y="1170" width="130" height="30" as="geometry" />
        </mxCell>
        <mxCell id="69kDBiBRpT4Zsd1rVVDj-54" value="Email" style="rounded=1;whiteSpace=wrap;html=1;align=left;" vertex="1" parent="1">
          <mxGeometry x="960" y="1170" width="130" height="30" as="geometry" />
        </mxCell>
        <mxCell id="69kDBiBRpT4Zsd1rVVDj-55" value="The search will be restricted to the same team (organisation)." style="text;html=1;align=left;whiteSpace=wrap;rounded=0;fillColor=#dae8fc;strokeColor=#6c8ebf;" vertex="1" parent="1">
          <mxGeometry x="660" y="1450" width="420" height="140" as="geometry" />
        </mxCell>
        <mxCell id="69kDBiBRpT4Zsd1rVVDj-56" value="&lt;b&gt;First name&lt;/b&gt;" style="text;html=1;align=center;verticalAlign=middle;whiteSpace=wrap;rounded=0;" vertex="1" parent="1">
          <mxGeometry x="680" y="1220" width="80" height="30" as="geometry" />
        </mxCell>
        <mxCell id="69kDBiBRpT4Zsd1rVVDj-57" value="&lt;b&gt;Last Name&lt;/b&gt;" style="text;html=1;align=center;verticalAlign=middle;whiteSpace=wrap;rounded=0;" vertex="1" parent="1">
          <mxGeometry x="780" y="1220" width="80" height="30" as="geometry" />
        </mxCell>
        <mxCell id="69kDBiBRpT4Zsd1rVVDj-58" value="&lt;b&gt;Email&lt;/b&gt;" style="text;html=1;align=center;verticalAlign=middle;whiteSpace=wrap;rounded=0;" vertex="1" parent="1">
          <mxGeometry x="870" y="1220" width="80" height="30" as="geometry" />
        </mxCell>
        <mxCell id="69kDBiBRpT4Zsd1rVVDj-59" value="User XX" style="text;html=1;align=center;verticalAlign=middle;whiteSpace=wrap;rounded=0;" vertex="1" parent="1">
          <mxGeometry x="685" y="1250" width="60" height="30" as="geometry" />
        </mxCell>
        <mxCell id="69kDBiBRpT4Zsd1rVVDj-60" value="User XX" style="text;html=1;align=center;verticalAlign=middle;whiteSpace=wrap;rounded=0;" vertex="1" parent="1">
          <mxGeometry x="790" y="1250" width="60" height="30" as="geometry" />
        </mxCell>
        <mxCell id="69kDBiBRpT4Zsd1rVVDj-61" value="userxx@example.com" style="text;html=1;align=left;verticalAlign=middle;whiteSpace=wrap;rounded=0;" vertex="1" parent="1">
          <mxGeometry x="890" y="1250" width="130" height="30" as="geometry" />
        </mxCell>
        <UserObject label="Add" link="https://www.draw.io" id="69kDBiBRpT4Zsd1rVVDj-62">
          <mxCell style="text;html=1;strokeColor=none;fillColor=none;whiteSpace=wrap;align=center;verticalAlign=middle;fontColor=#0000EE;fontStyle=4;" vertex="1" parent="1">
            <mxGeometry x="1060" y="1245" width="60" height="40" as="geometry" />
          </mxCell>
        </UserObject>
      </root>
    </mxGraphModel>
  </diagram>
</mxfile>
